<?xml version="1.0" encoding="UTF-8"?>
<svg fill="#FF0C00" width="100pt" height="100pt" version="1.1" viewBox="0 0 100 100" xmlns="http://www.w3.org/2000/svg">
 <g>
  <path d="m32.539 39.637c0.82031-0.72266 1.1211-1.8672 0.76563-2.8984-0.35156-1.0312-1.293-1.7461-2.3828-1.8125-1.0898-0.070312-2.1094 0.52344-2.5898 1.5039-0.48047 0.98047-0.32031 2.1523 0.40234 2.9688 0.98438 1.1172 2.6875 1.2227 3.8047 0.23828z"/>
  <path d="m51.785 39.637c0.82031-0.72266 1.125-1.8672 0.76953-2.9023-0.35547-1.0312-1.2969-1.75-2.3867-1.8164-1.0898-0.066407-2.1133 0.52734-2.5938 1.5078s-0.32031 2.1562 0.40234 2.9727c0.98828 1.1172 2.6914 1.2227 3.8086 0.23828z"/>
  <path d="m71.035 39.637c0.81641-0.72266 1.1211-1.8672 0.76562-2.9023-0.35547-1.0312-1.2969-1.75-2.3867-1.8164-1.0898-0.066407-2.1133 0.52734-2.5938 1.5078-0.48047 0.98047-0.32031 2.1562 0.40234 2.9727 0.98828 1.1172 2.6914 1.2227 3.8125 0.23828z"/>
  <path d="m42.164 28.207c0.81641-0.72266 1.1172-1.8672 0.76172-2.8984s-1.2969-1.7461-2.3828-1.8125c-1.0898-0.066406-2.1133 0.52734-2.5898 1.5078-0.47656 0.98047-0.32031 2.1523 0.40234 2.9688 0.47656 0.53516 1.1406 0.86328 1.8555 0.90625 0.71484 0.042969 1.418-0.19922 1.9531-0.67188z"/>
  <path d="m61.41 28.207c0.81641-0.72266 1.1172-1.8672 0.76172-2.8984s-1.2969-1.7461-2.3867-1.8125c-1.0859-0.066406-2.1094 0.52734-2.5859 1.5078-0.48047 0.98047-0.32031 2.1523 0.40234 2.9688 0.47266 0.53906 1.1406 0.86328 1.8555 0.90625 0.71484 0.046875 1.418-0.19922 1.9531-0.67188z"/>
  <path d="m94.297 49.641c-1.1445-10.914-6.3203-21.008-14.512-28.309-8.1914-7.2969-18.812-11.277-29.785-11.16-10.969-0.125-21.59 3.8516-29.781 11.148-8.1914 7.3008-13.359 17.395-14.496 28.305-3.1406 2.2109-4.9727 5.8438-4.8867 9.6836 0.089843 3.8398 2.0859 7.3828 5.3242 9.4492v5.2422c0.003906 4.1992 1.6758 8.2227 4.6445 11.191 2.9688 2.9648 6.9922 4.6367 11.188 4.6406h56.008c4.1992-0.003906 8.2227-1.6758 11.191-4.6406 2.9648-2.9688 4.6367-6.9922 4.6406-11.191v-5.2422c3.2383-2.0625 5.2344-5.6016 5.3242-9.4375 0.09375-3.8359-1.7344-7.4648-4.8672-9.6797zm-44.297-34.469c9.2969-0.10156 18.328 3.1055 25.477 9.0469 7.1523 5.9453 11.957 14.234 13.559 23.395-0.48047-0.082031-0.96484-0.12891-1.4531-0.14844h-75.172c-0.48438 0.019531-0.96875 0.066406-1.4453 0.14844 1.5938-9.1641 6.3945-17.457 13.547-23.402 7.1523-5.9453 16.188-9.1484 25.488-9.0391zm-8.4648 51.137c-3.3711 3.2031-8.6562 3.2031-12.027 0l-14.629-13.844h41.289zm-32.766-12.738 10.109 9.5664c-0.55859 0.30078-1.0781 0.60547-1.5312 0.89062h0.003906c-1.4219 1.0742-3.1641 1.6367-4.9414 1.5898-2.8984 0-5.4531-1.8984-6.293-4.6719-0.83594-2.7734 0.23828-5.7695 2.6523-7.375zm80.07 20.43c-0.007813 5.9805-4.8516 10.824-10.832 10.832h-56.008c-5.9805-0.007812-10.824-4.8516-10.832-10.832v-3.5117c0.41406 0.066407 0.82812 0.10938 1.25 0.12891 2.7109 0.039062 5.3672-0.78516 7.582-2.3555 0.86719-0.60938 1.8359-1.0664 2.8555-1.3516l3.1953 3.0273h0.003907c5.3008 5.0234 13.605 5.0234 18.906 0l3.2969-3.1211 0.52734-0.078125c0.41016-0.050781 0.82422-0.074219 1.2422-0.070312 1.7734-0.046875 3.5117 0.51562 4.9258 1.5898 4.5742 3.1406 10.613 3.1406 15.188 0 2.9414-2.1211 6.9141-2.1211 9.8555 0 2.2148 1.5742 4.875 2.3984 7.5938 2.3555 0.41797-0.019531 0.83594-0.0625 1.25-0.125zm-1.25-8.3789c-1.7734 0.042968-3.5117-0.51562-4.9258-1.5898-4.5781-3.1445-10.613-3.1445-15.191 0-2.9414 2.1172-6.9102 2.1172-9.8516 0-1.3281-0.88672-2.793-1.543-4.3359-1.9492l10.164-9.6133h24.145c1.7695-0.039062 3.4805 0.63672 4.7461 1.875 1.2656 1.2344 1.9766 2.9297 1.9766 4.7031 0 1.7695-0.71094 3.4648-1.9766 4.6992-1.2656 1.2383-2.9766 1.9141-4.7461 1.875z"/>
 </g>
</svg>
