<?xml version="1.0" encoding="UTF-8"?>
<svg fill="#942192" width="100pt" height="100pt" version="1.1" viewBox="0 0 100 100" xmlns="http://www.w3.org/2000/svg">
 <g>
  <path d="m29.125 54.375c-1.6484 0-2.9844-1.3359-2.9844-2.9844v-0.5625c0-1.6523 1.3398-2.9922 2.9922-2.9922 1.6523 0 2.9922 1.3398 2.9922 2.9922v0.5625c0 0.79297-0.31641 1.5547-0.87891 2.1172-0.5625 0.55859-1.3281 0.87109-2.1211 0.86719z"/>
  <path d="m77.25 45.312c-1.6484 0-2.9844-1.3359-2.9844-2.9844v-0.5625c0-1.6523 1.3398-2.9922 2.9922-2.9922 1.6523 0 2.9922 1.3398 2.9922 2.9922v0.5625c0 0.79297-0.31641 1.5547-0.87891 2.1172-0.5625 0.55859-1.3281 0.87109-2.1211 0.86719z"/>
  <path d="m23.141 40.859c-1.6484 0-2.9844-1.3359-2.9844-2.9844v-0.5625c0-1.6523 1.3398-2.9922 2.9922-2.9922 1.6523 0 2.9922 1.3398 2.9922 2.9922v0.5625c0 0.79297-0.31641 1.5547-0.87891 2.1172-0.5625 0.55859-1.3281 0.87109-2.1211 0.86719z"/>
  <path d="m17.562 53.125c-1.6484 0-2.9844-1.3359-2.9844-2.9844v-0.5625c0-1.6523 1.3398-2.9922 2.9922-2.9922 1.6523 0 2.9922 1.3398 2.9922 2.9922v0.5625c0 0.79297-0.31641 1.5547-0.87891 2.1172-0.5625 0.55859-1.3281 0.87109-2.1211 0.86719z"/>
  <path d="m71.203 33.5c-1.6484 0-2.9844-1.3359-2.9844-2.9844v-0.5625c0-1.6523 1.3398-2.9922 2.9922-2.9922 1.6523 0 2.9922 1.3398 2.9922 2.9922v0.5625c0 0.79297-0.31641 1.5547-0.87891 2.1172-0.5625 0.55859-1.3281 0.87109-2.1211 0.86719z"/>
  <path d="m55.391 25.094c-1.1406 0-2.0625-0.92188-2.0625-2.0625v-0.39062c0.09375-1.0664 0.98438-1.8828 2.0547-1.8828 1.0703 0 1.9609 0.81641 2.0547 1.8828v0.39062c0 1.1328-0.91406 2.0547-2.0469 2.0625z"/>
  <path d="m47.938 28.328c-1.1406 0-2.0625-0.92188-2.0625-2.0625v-0.39062c0.09375-1.0664 0.98438-1.8828 2.0547-1.8828 1.0703 0 1.9609 0.81641 2.0547 1.8828v0.39062c0 1.1328-0.91406 2.0547-2.0469 2.0625z"/>
  <path d="m38.672 55.422c-1.1406 0-2.0625-0.92188-2.0625-2.0625v-0.39062c0.09375-1.0664 0.98438-1.8828 2.0547-1.8828 1.0703 0 1.9609 0.81641 2.0547 1.8828v0.39062c0 1.1328-0.91406 2.0547-2.0469 2.0625z"/>
  <path d="m61.797 57.641c-1.1406 0-2.0625-0.92188-2.0625-2.0625v-0.39062c-0.050781-0.57422 0.14453-1.1484 0.53516-1.5742s0.94141-0.66797 1.5195-0.66797c0.57813 0 1.1289 0.24219 1.5195 0.66797s0.58594 1 0.53516 1.5742v0.39062c0 1.1328-0.91406 2.0547-2.0469 2.0625z"/>
  <path d="m65.312 27.344c-0.54688 0.003906-1.0742-0.21094-1.4648-0.59375-0.38672-0.38281-0.60938-0.90625-0.61328-1.4531v-0.39062c0.09375-1.0664 0.98438-1.8828 2.0547-1.8828 1.0703 0 1.9609 0.81641 2.0547 1.8828v0.39062c-0.007812 1.1211-0.91016 2.0312-2.0312 2.0469z"/>
  <path d="m77.609 35.75c-1.1406 0-2.0625-0.92188-2.0625-2.0625v-0.39062c0.09375-1.0664 0.98438-1.8828 2.0547-1.8828 1.0703 0 1.9609 0.81641 2.0547 1.8828v0.39062c0 1.1328-0.91406 2.0547-2.0469 2.0625z"/>
  <path d="m71.203 39.828c-1.1406 0-2.0625-0.92188-2.0625-2.0625v-0.39062c-0.050781-0.57422 0.14453-1.1484 0.53516-1.5742s0.94141-0.66797 1.5195-0.66797c0.57813 0 1.1289 0.24219 1.5195 0.66797s0.58594 1 0.53516 1.5742v0.39062c0 1.1328-0.91406 2.0547-2.0469 2.0625z"/>
  <path d="m85.375 44.344c-1.1406 0-2.0625-0.92188-2.0625-2.0625v-0.39062c0.09375-1.0664 0.98438-1.8828 2.0547-1.8828 1.0703 0 1.9609 0.81641 2.0547 1.8828v0.39062c0 1.1328-0.91406 2.0547-2.0469 2.0625z"/>
  <path d="m37.734 28.328c-1.6484 0-2.9844-1.3359-2.9844-2.9844v-0.5625c0-1.6523 1.3398-2.9922 2.9922-2.9922 1.6523 0 2.9922 1.3398 2.9922 2.9922v0.5625c0 0.79297-0.31641 1.5547-0.87891 2.1172-0.5625 0.55859-1.3281 0.87109-2.1211 0.86719z"/>
  <path d="m52.406 60.938c-1.6484 0-2.9844-1.3359-2.9844-2.9844v-0.5625c0-1.6523 1.3398-2.9922 2.9922-2.9922 1.6523 0 2.9922 1.3398 2.9922 2.9922v0.5625c0 0.79297-0.31641 1.5547-0.87891 2.1172-0.5625 0.55859-1.3281 0.87109-2.1211 0.86719z"/>
  <path d="m74.469 49.422c0.039062 0.80469-0.25 1.5898-0.80078 2.1797-0.55078 0.58984-1.3164 0.92969-2.1211 0.94531h-0.5625c-1.6523 0.039063-3.0234-1.2695-3.0625-2.9219s1.2695-3.0234 2.9219-3.0625h0.5625c1.6289-0.042969 2.9961 1.2305 3.0625 2.8594z"/>
  <path d="m26.984 33.5c-1.6484 0-2.9844-1.3359-2.9844-2.9844v-0.5625c0-1.6523 1.3398-2.9922 2.9922-2.9922 1.6523 0 2.9922 1.3398 2.9922 2.9922v0.5625c0 0.79297-0.31641 1.5547-0.87891 2.1172-0.5625 0.55859-1.3281 0.87109-2.1211 0.86719z"/>
  <path d="m83.312 55.781c-1.6484 0-2.9844-1.3359-2.9844-2.9844v-0.5625c0-1.6523 1.3398-2.9922 2.9922-2.9922 1.6523 0 2.9922 1.3398 2.9922 2.9922v0.5625c0 0.79297-0.31641 1.5547-0.87891 2.1172-0.5625 0.55859-1.3281 0.87109-2.1211 0.86719z"/>
  <path d="m59.734 29.25c-0.55469 0.003906-1.0898-0.21484-1.4844-0.60938s-0.61328-0.92969-0.60938-1.4844v-0.39062c-0.050781-0.58594 0.14453-1.1641 0.54297-1.5977 0.39453-0.42969 0.95703-0.67578 1.543-0.67578 0.58594 0 1.1484 0.24609 1.543 0.67578 0.39844 0.43359 0.59375 1.0117 0.54297 1.5977v0.39062c0.003906 0.55469-0.21484 1.0859-0.60156 1.4805-0.39063 0.39062-0.92188 0.61328-1.4766 0.61328z"/>
  <path d="m15.438 44.125c-1.6289-0.027344-2.9375-1.3555-2.9375-2.9844v-0.51562c0-1.6523 1.3398-2.9922 2.9922-2.9922 1.6523 0 2.9922 1.3398 2.9922 2.9922v0.5625c-0.011719 0.79297-0.33984 1.5508-0.91406 2.1016-0.57031 0.55078-1.3398 0.85156-2.1328 0.83594z"/>
  <path d="m50 84.281c-25 0-45.312-15.375-45.312-34.281s20.312-34.281 45.312-34.281 45.312 15.375 45.312 34.281-20.312 34.281-45.312 34.281zm0-65.438c-23.266 0-42.188 13.969-42.188 31.156s18.922 31.156 42.188 31.156 42.188-13.969 42.188-31.156-18.922-31.156-42.188-31.156z"/>
  <path d="m50 51.469c-10.391 0-18.516-4.6875-18.516-10.609s8.125-10.625 18.516-10.625 18.516 4.6875 18.516 10.609-8.125 10.625-18.516 10.625zm0-18.109c-9.2031 0-15.391 3.875-15.391 7.4844s6.25 7.4844 15.391 7.4844 15.391-3.875 15.391-7.4844-6.1875-7.4844-15.391-7.4844z"/>
  <path d="m54.094 69.828c-5.7344 0-8.1406-3.2188-10.078-5.8125-1.6719-2.2344-2.9844-4-6.1406-4-2.8828-0.003906-5.7383 0.58203-8.3906 1.7188-3.3438 1.3711-6.918 2.0977-10.531 2.1406h-0.20312c-10.203 0-13.828-12.906-13.984-13.453-0.23047-0.83984 0.26953-1.707 1.1094-1.9375s1.707 0.26953 1.9375 1.1094c0 0.10938 3.125 11.156 10.938 11.156h0.15625c3.2695-0.03125 6.5-0.69531 9.5156-1.9531 3-1.2578 6.2188-1.9062 9.4688-1.9062 4.6875 0 6.7969 2.7969 8.6406 5.25s3.4062 4.5625 7.5781 4.5625 6.75-2.9219 9.375-6.0156 5.125-6.125 9.4688-6.125c3.3633-0.30078 6.5547 1.5195 8.0156 4.5625 0.79688 1.3281 1.0312 1.5625 1.7969 1.5625 3.125 0 9.1094-6.25 9.4844-10.938 0.070312-0.86328 0.82422-1.5078 1.6875-1.4375s1.5078 0.82422 1.4375 1.6875c-0.46875 5.9062-7.6562 13.734-12.594 13.734-1.9766-0.070313-3.7305-1.293-4.4844-3.125-0.89844-2.0898-3.0742-3.3281-5.3281-3.0312-2.875 0-4.8125 2.3125-7.0625 5-2.875 3.4688-6.0469 7.25-11.812 7.25z"/>
 </g>
</svg>
