<?xml version="1.0" encoding="UTF-8"?>
<svg fill="#FFA33C" width="100pt" height="100pt" version="1.1" viewBox="0 0 100 100" xmlns="http://www.w3.org/2000/svg">
 <path d="m35.969 7.5039c-3.3711 0-6.5508 1.8125-8.1758 4.8516-1.8984 3.5547-1.2617 7.9609 1.5156 10.922 0.085937 0.085937 0.12891 0.13672 0.20703 0.20703l-15.371 52.711-0.003906-0.003906c-0.22656 0.78516-0.015625 1.6328 0.55859 2.2148 0.57031 0.58203 1.4141 0.8125 2.2031 0.60156l6.4961-1.75v7.457c0 4.2734 3.5117 7.7852 7.7852 7.7852 4.2734 0 7.7852-3.5117 7.7852-7.7852v-11.656l5.2695-1.4219v1.5938c0 4.2734 3.5117 7.7852 7.7852 7.7852 4.2734 0 7.7852-3.5117 7.7852-7.7852v-5.7891l10.133-2.7305c2.0352 2.0469 4.9609 3.168 8.0078 2.7695 5.1562-0.67578 8.7344-5.5547 7.8789-10.695-1.8906-12.117-7.5781-23.41-16.227-32.238-8.6484-8.8281-19.816-14.742-31.891-16.883-0.49609-0.09375-0.99609-0.14453-1.4883-0.16406-0.085937-0.003906-0.16406-0.003906-0.24609-0.003906zm-0.085938 4.5195c0.085938 0 0.10938 0 0.17188 0.003906 0.25781 0 0.51953 0 0.77734 0.085937v-0.003906 0.007813c11.145 1.9688 21.477 7.4336 29.477 15.598 8 8.1641 13.25 18.605 14.992 29.789h0.003907c0.45312 2.7344-1.3047 5.1172-4.0039 5.4727-1.7734 0.23047-3.4805-0.53125-4.5586-1.8516-0.10156-0.21484-0.24219-0.41016-0.40625-0.58203-0.34375-0.5625-0.58203-1.2031-0.67578-1.8945v0.003906h-0.003906c-1.418-9.1133-5.6875-17.598-12.191-24.234s-14.898-11.078-23.98-12.684v-0.007813c-0.66016-0.10937-1.2891-0.35156-1.8594-0.69922-0.15234-0.14453-0.32422-0.26562-0.51172-0.35938-0.1875-0.15234-0.35938-0.31641-0.53125-0.48828-1.4883-1.5859-1.793-3.8828-0.82031-5.6953 0.82031-1.5391 2.3867-2.4609 4.1172-2.4609zm-2.3867 13.879c0.40234 0.12109 0.82031 0.22266 1.2422 0.28906 8.1406 1.4414 15.684 5.4297 21.527 11.395 1.0781 1.1016 2.0898 2.2578 3.0273 3.4648-0.9375 0.44531-1.8047 1.0469-2.5586 1.7852h-0.003906c-3.7266 3.6484-3.7891 9.6914-0.13672 13.418 2.7891 2.8438 6.9766 3.5508 10.457 2.0977 0.085938 0.33203 0.12109 0.66797 0.17188 0.99609 0.085938 0.45312 0.16406 0.89844 0.28906 1.3281l-10.582 2.8516h0.003906c-0.98828 0.26562-1.6758 1.1602-1.6758 2.1836v7.5234c0 1.8438-1.4141 3.2617-3.2617 3.2617-1.8438 0-3.2578-1.4141-3.2578-3.2617v-4.5469c0-0.70312-0.32812-1.3672-0.88672-1.793-0.55859-0.42969-1.2852-0.57422-1.9648-0.39062l-9.793 2.6406v0.003907c-0.98828 0.26562-1.6719 1.1602-1.6719 2.1836v13.387c0 1.8438-1.4141 3.2578-3.2578 3.2578-1.8477 0-3.2617-1.4141-3.2617-3.2578v-10.41c0-0.70312-0.32812-1.3672-0.88672-1.7969-0.55859-0.42578-1.2852-0.57031-1.9648-0.38672l-5.4609 1.4727 1.3867-4.7539c3.2109 0.92188 6.7773 0.10156 9.2617-2.3281v-0.003906c3.7266-3.6484 3.7891-9.6914 0.13672-13.418v0.003906-0.003906c-1.1445-1.1641-2.5586-2.0039-4.0938-2.4531zm6.9688 9.3516c-1.9141 0.003906-3.8242 0.71875-5.2891 2.1484-2.9688 2.9102-3.0195 7.7422-0.10938 10.711s7.7422 3.0195 10.711 0.10938 3.0195-7.7422 0.10938-10.711c-1.4766-1.5078-3.4492-2.2617-5.4258-2.2578zm0 4.4961c0.78516 0 1.5742 0.30859 2.1836 0.92969 1.1992 1.2227 1.1797 3.1172-0.085938 4.3164-1.2227 1.1992-3.1172 1.1797-4.3164-0.085938-1.1992-1.2227-1.1797-3.1172 0.085937-4.3164 0.59766-0.58984 1.3672-0.88672 2.1289-0.88672zm21.418 5.1328c1.7109 2.8203 3.0664 5.8359 4.0352 8.9805-1.9297 1.1758-4.4453 0.91406-6.1016-0.77734-1.9375-1.9766-1.9062-5.082 0.085938-7.0156 0.5625-0.55469 1.25-0.95312 1.9961-1.1875zm-36.879 10.102c0.80469 0.23828 1.5352 0.67578 2.1328 1.2773 1.9336 1.9766 1.9023 5.082-0.085938 7.0156-1.3125 1.2812-3.1562 1.707-4.832 1.2227zm19.922 0.45312c-0.89453 0.003906-1.7852 0.34375-2.457 1.0078-1.3398 1.3398-1.3398 3.5625 0 4.9023s3.5742 1.3516 4.9102 0c1.3398-1.3398 1.3398-3.5859 0-4.9258-0.66797-0.66797-1.5625-1-2.457-1z"/>
</svg>
